<?xml version="1.0" encoding="UTF-8" standalone="no"?>
<!-- Created with Inkscape (http://www.inkscape.org/) -->

<svg
   xmlns:dc="http://purl.org/dc/elements/1.1/"
   xmlns:cc="http://creativecommons.org/ns#"
   xmlns:rdf="http://www.w3.org/1999/02/22-rdf-syntax-ns#"
   xmlns:svg="http://www.w3.org/2000/svg"
   xmlns="http://www.w3.org/2000/svg"
   xmlns:sodipodi="http://sodipodi.sourceforge.net/DTD/sodipodi-0.dtd"
   xmlns:inkscape="http://www.inkscape.org/namespaces/inkscape"
   width="78"
   height="78"
   viewBox="0 0 20.6375 20.637501"
   version="1.1"
   id="svg3723"
   inkscape:version="0.92.4 (unknown)"
   sodipodi:docname="o.svg">
  <defs
     id="defs3717" />
  <sodipodi:namedview
     id="base"
     pagecolor="#ffffff"
     bordercolor="#666666"
     borderopacity="1.0"
     inkscape:pageopacity="0.0"
     inkscape:pageshadow="2"
     inkscape:zoom="3.959798"
     inkscape:cx="37.455352"
     inkscape:cy="34.810608"
     inkscape:document-units="mm"
     inkscape:current-layer="layer1"
     showgrid="false"
     units="px"
     inkscape:window-width="1331"
     inkscape:window-height="713"
     inkscape:window-x="35"
     inkscape:window-y="27"
     inkscape:window-maximized="1"
     inkscape:snap-nodes="false"
     inkscape:snap-bbox="true" />
  <metadata
     id="metadata3720">
    <rdf:RDF>
      <cc:Work
         rdf:about="">
        <dc:format>image/svg+xml</dc:format>
        <dc:type
           rdf:resource="http://purl.org/dc/dcmitype/StillImage" />
        <dc:title></dc:title>
      </cc:Work>
    </rdf:RDF>
  </metadata>
  <g
     inkscape:label="Layer 1"
     inkscape:groupmode="layer"
     id="layer1"
     transform="translate(0,-276.36248)">
    <path
       style="fill:#66ff00;stroke-width:0.99047333"
       d="M 39.001953 1.9648438 A 37.232143 37.053572 0 0 0 1.7695312 39.019531 A 37.232143 37.053572 0 0 0 39.001953 76.072266 A 37.232143 37.053572 0 0 0 76.234375 39.019531 A 37.232143 37.053572 0 0 0 39.001953 1.9648438 z M 38.890625 19.396484 A 19.807011 19.712014 0 0 1 58.697266 39.109375 A 19.807011 19.712014 0 0 1 38.890625 58.820312 A 19.807011 19.712014 0 0 1 19.083984 39.109375 A 19.807011 19.712014 0 0 1 38.890625 19.396484 z "
       transform="matrix(0.26458333,0,0,0.26458333,0,276.36248)"
       id="path3751" />
  </g>
</svg>
